<svg width="215" height="180" viewBox="0 0 215 180" fill="none" xmlns="http://www.w3.org/2000/svg">
<path d="M8.4 91.2C13.0392 91.2 16.8 87.4392 16.8 82.8C16.8 78.1608 13.0392 74.4 8.4 74.4C3.76081 74.4 0 78.1608 0 82.8C0 87.4392 3.76081 91.2 8.4 91.2Z" fill="#5838DC"/>
<path d="M48.6 22.8C54.896 22.8 60 17.696 60 11.4C60 5.10395 54.896 0 48.6 0C42.3039 0 37.2 5.10395 37.2 11.4C37.2 17.696 42.3039 22.8 48.6 22.8Z" fill="#FFD64B"/>
<path d="M198.6 164.4C203.571 164.4 207.6 160.371 207.6 155.4C207.6 150.429 203.571 146.4 198.6 146.4C193.629 146.4 189.6 150.429 189.6 155.4C189.6 160.371 193.629 164.4 198.6 164.4Z" fill="#FFD64B"/>
<path d="M210 118.8C212.651 118.8 214.8 116.651 214.8 114C214.8 111.349 212.651 109.2 210 109.2C207.349 109.2 205.2 111.349 205.2 114C205.2 116.651 207.349 118.8 210 118.8Z" fill="#5838DC"/>
<path d="M108 180C153.066 180 189.6 143.466 189.6 98.4C189.6 53.3336 153.066 16.8 108 16.8C62.9336 16.8 26.4 53.3336 26.4 98.4C26.4 143.466 62.9336 180 108 180Z" fill="#9F80F3"/>
<path d="M178.8 97.8C178.8 136.579 147.111 168 108 168C89.2255 167.991 71.2227 160.592 57.9472 147.429C44.6716 134.266 37.2093 116.415 37.2 97.8C37.2 59.0209 68.8894 27.6 108 27.6C126.777 27.6 144.786 34.9961 158.063 48.1611C171.341 61.3262 178.8 79.1818 178.8 97.8Z" fill="#5838DC"/>
<path d="M51.6 149.396C51.6 149.396 64.0783 136.312 66.9351 132.015C69.792 127.718 70.9328 119.806 70.9328 113.417C70.9328 107.028 77.3599 93.4609 92.0781 84.5902L123.69 68.4L138 113.382C138 113.382 108.718 140.023 105.697 141.787C102.676 143.551 98.2706 143.679 94.8739 143.425L72.3468 168L51.6 149.396Z" fill="#FFC3BD"/>
<path d="M129.6 69.2409C134.395 66.2146 140.537 61.0705 146.598 61.2025C148.267 61.2393 149.949 63.0164 150 64.5787C149.98 65.5047 149.592 66.3884 148.916 67.0494C147.9 68.1175 134.808 76.2572 134.28 75.5574L129.6 69.2409Z" fill="#FFC3BD"/>
<path d="M105.6 124.805C105.6 124.805 108.352 126.323 108.352 127.955C108.352 129.586 110.236 126.32 108.388 124.8L105.6 124.805Z" fill="#FF905C"/>
<path d="M102 124.812C102.561 126.118 102.876 127.548 102.921 129.006C102.921 131.182 103.549 126.828 102.921 124.8L102 124.812Z" fill="#FF905C"/>
<path d="M98.4001 123.6C98.4001 123.6 97.7378 128.411 93.6001 132L98.4001 123.6Z" fill="#FF905C"/>
<path d="M132.025 38.4H98.3754C94.4125 38.4 91.2 41.5972 91.2 45.5411V117.659C91.2 121.603 94.4125 124.8 98.3754 124.8H132.025C135.987 124.8 139.2 121.603 139.2 117.659V45.5411C139.2 41.5972 135.987 38.4 132.025 38.4Z" fill="white"/>
<path d="M135.6 45.5744V117.638C135.595 118.584 135.215 119.488 134.542 120.156C133.869 120.823 132.958 121.198 132.008 121.2H98.3918C97.8517 121.203 97.3181 121.082 96.8327 120.847C96.3474 120.611 95.9233 120.267 95.5936 119.841C95.0776 119.222 94.7967 118.442 94.8001 117.638V45.5744C94.8018 44.6269 95.1807 43.7188 95.8539 43.0488C96.5271 42.3788 97.4397 42.0017 98.3918 42H132.008C132.507 42.0011 132.999 42.1102 133.451 42.3197C134.088 42.596 134.63 43.0509 135.012 43.6288C135.394 44.2068 135.598 44.8828 135.6 45.5744Z" fill="url(#paint0_linear)"/>
<path opacity="0.07" d="M135.6 45.5744V65.7677L113.97 121.2H98.3918C97.8517 121.203 97.3181 121.082 96.8327 120.847C96.3474 120.611 95.9233 120.267 95.5936 119.841C95.0776 119.222 94.7967 118.442 94.8001 117.638V96.8248L116.183 42H132.008C132.507 42.0011 132.999 42.1102 133.451 42.3197C134.088 42.596 134.63 43.0509 135.012 43.6288C135.394 44.2068 135.598 44.8828 135.6 45.5744Z" fill="white"/>
<g opacity="0.15">
<path opacity="0.15" d="M114.819 74.8015C120.206 74.8015 124.573 70.4347 124.573 65.0479C124.573 59.6612 120.206 55.2943 114.819 55.2943C109.432 55.2943 105.066 59.6612 105.066 65.0479C105.066 70.4347 109.432 74.8015 114.819 74.8015Z" fill="#808080"/>
</g>
<path d="M115.699 74.2535C120.866 73.575 124.504 68.8366 123.826 63.6699C123.147 58.5032 118.409 54.8648 113.242 55.5433C108.075 56.2217 104.437 60.9601 105.115 66.1268C105.794 71.2935 110.532 74.9319 115.699 74.2535Z" fill="white"/>
<path d="M116.796 61.331C117.335 60.239 116.886 58.917 115.794 58.3782C114.702 57.8395 113.38 58.288 112.841 59.38C112.303 60.472 112.751 61.794 113.843 62.3328C114.935 62.8715 116.257 62.423 116.796 61.331Z" fill="url(#paint1_linear)"/>
<path d="M117.845 64.8906L117.826 64.8681C116.957 64.0542 115.801 63.6 114.599 63.6C113.398 63.6 112.242 64.0542 111.373 64.8681L111.353 64.8874C111.022 65.2236 110.767 65.6243 110.604 66.0635C110.441 66.5028 110.375 66.9707 110.408 67.4369C110.442 67.903 110.576 68.357 110.8 68.7693C111.025 69.1816 111.335 69.543 111.711 69.8299C112.539 70.4587 113.556 70.8 114.603 70.8C115.65 70.8 116.667 70.4587 117.494 69.8299C117.869 69.5425 118.179 69.1809 118.402 68.7687C118.626 68.3564 118.759 67.9027 118.792 67.4369C118.825 66.9712 118.758 66.5038 118.595 66.0651C118.432 65.6265 118.176 65.2263 117.845 64.8906Z" fill="url(#paint2_linear)"/>
<path d="M112.387 81.5976H124.016C124.224 81.597 124.424 81.5335 124.571 81.421C124.717 81.3086 124.8 81.1563 124.8 80.9976C124.799 80.8389 124.716 80.6869 124.568 80.5749C124.421 80.4629 124.221 80.4 124.013 80.4H112.387C112.178 80.4 111.978 80.4632 111.831 80.5757C111.683 80.6882 111.6 80.8409 111.6 81C111.6 81.1591 111.683 81.3117 111.831 81.4243C111.978 81.5368 112.178 81.6 112.387 81.6V81.5976Z" fill="white"/>
<path d="M124.027 86.4024H105.17C104.965 86.403 104.77 86.4665 104.625 86.579C104.481 86.6914 104.4 86.8437 104.4 87.0024C104.4 87.1609 104.481 87.3129 104.625 87.425C104.77 87.537 104.966 87.6 105.17 87.6H124.027C124.232 87.6 124.429 87.5368 124.574 87.4243C124.719 87.3117 124.8 87.1591 124.8 87C124.8 86.8409 124.719 86.6882 124.574 86.5757C124.429 86.4632 124.232 86.4 124.027 86.4V86.4024Z" fill="white"/>
<path d="M105.467 81.8758L105.922 82.5047C106.045 82.6721 106.22 82.777 106.41 82.7967C106.599 82.8163 106.788 82.749 106.935 82.6095L107.478 82.0777L110.144 79.4614C110.29 79.3203 110.381 79.1184 110.397 78.9C110.414 78.6817 110.354 78.4647 110.232 78.2969C110.109 78.1286 109.934 78.023 109.744 78.0033C109.554 77.9837 109.366 78.0516 109.219 78.1921L106.57 80.7928L105.679 79.5546C105.557 79.3847 105.381 79.2776 105.191 79.2569C105 79.2361 104.81 79.3034 104.662 79.4439C104.514 79.5845 104.421 79.7867 104.403 80.0062C104.385 80.2257 104.444 80.4444 104.566 80.6143L105.467 81.8758Z" fill="white"/>
<path d="M88.3843 101.177C89.3925 103.809 92.2318 99.3597 94.1604 97.2722C96.089 95.1847 95.7377 94.898 98.4079 93.9186C99.4746 93.5256 99.9755 93.8284 102.369 93.5643C104.032 93.3582 105.681 93.0592 107.309 92.6687C111.485 91.7023 113.06 93.532 113.651 95.1524C113.892 95.8246 114.009 96.5335 113.999 97.2464C113.743 99.8944 112.103 101.17 109.84 101.879C108.044 102.439 106.022 102.807 104.392 103.618C102.971 104.33 101.179 105.123 100.21 106.379L97.7574 109.556C96.7817 110.844 94.5051 112.932 94.1799 114.571C93.9165 115.818 94.8629 116.946 95.5491 117.883C97.1753 120.106 98.0827 121.617 97.5005 124.126C96.8695 126.868 94.6677 130.038 93.923 132.747C93.7376 133.391 93.5197 134.11 92.9473 134.499C92.2513 134.986 91.1617 134.883 90.6902 135.585C90.521 135.836 88.7095 132.837 88.5859 132.592C88.02 131.458 87.5127 130.212 86.6085 129.294L82.8 125.428" fill="#FFC3BD"/>
<path d="M135.455 95.3851C135.845 95.8114 136.282 96.1986 136.759 96.5403C137.038 96.7405 137.339 96.9131 137.657 97.0551C137.748 97.0959 137.836 97.1336 137.928 97.165V97.7394L137.968 100.8C140.302 99.7672 144.986 97.1995 145.193 93.238C145.467 87.9519 138.012 88.2501 136.082 89.7474C134.151 91.2448 133.802 93.6367 135.455 95.3851Z" fill="#FFC3BD"/>
<path d="M139.64 94.0992C139.4 94.3223 139.115 94.499 138.801 94.6193C138.488 94.7396 138.151 94.801 137.811 94.8H136.723C136.378 94.5078 136.101 94.1539 135.908 93.7597C135.715 93.3655 135.611 92.9391 135.601 92.5064C135.591 92.0736 135.675 91.6435 135.85 91.242C136.024 90.8404 136.285 90.4758 136.615 90.1702C136.679 90.1115 136.745 90.0558 136.815 90.0001H138.121C138.461 89.9968 138.796 90.0708 139.097 90.2154C139.398 90.3601 139.656 90.5711 139.849 90.8299C140.738 92.0555 140.466 93.3339 139.64 94.0992Z" fill="#FFD5AE"/>
<path d="M139.64 94.0992C139.4 94.3223 139.115 94.499 138.801 94.6193C138.488 94.7396 138.151 94.801 137.811 94.8H136.723C136.378 94.5078 136.101 94.1539 135.908 93.7597C135.715 93.3655 135.611 92.9391 135.601 92.5064C135.591 92.0736 135.675 91.6435 135.85 91.242C136.024 90.8404 136.285 90.4758 136.615 90.1702C136.679 90.1115 136.745 90.0558 136.815 90.0001H138.121C138.461 89.9968 138.796 90.0708 139.097 90.2154C139.398 90.3601 139.656 90.5711 139.849 90.8299C140.738 92.0555 140.466 93.3339 139.64 94.0992Z" fill="#FFE1DE"/>
<path d="M135.455 82.1862C135.845 82.6133 136.282 83.0014 136.759 83.3443C137.038 83.5435 137.339 83.715 137.657 83.8559L137.928 83.9657V84.5369L137.968 87.6C140.302 86.5643 144.986 83.9971 145.193 80.0364C145.467 74.7544 138.012 75.0494 136.082 76.5465C134.151 78.0435 133.802 80.4381 135.455 82.1862Z" fill="#FFC3BD"/>
<path d="M138 84L138.204 84.1687V85.0457C139.609 85.6191 140.4 84.4096 140.4 84.4096C139.594 84.4695 138.787 84.3318 138 84Z" fill="#FF905C"/>
<path d="M139.64 81.9204C139.401 82.1997 139.116 82.4212 138.802 82.5722C138.488 82.7232 138.151 82.8006 137.811 82.8H136.723C136.378 82.4345 136.101 81.9918 135.908 81.4987C135.715 81.0057 135.611 80.4724 135.601 79.9312C135.591 79.39 135.675 78.852 135.85 78.3497C136.024 77.8475 136.285 77.3915 136.616 77.0091C136.679 76.9358 136.745 76.8662 136.815 76.8002H138.122C138.461 76.7951 138.796 76.8871 139.097 77.068C139.399 77.249 139.657 77.5132 139.849 77.8374C140.738 79.3694 140.466 80.9784 139.64 81.9204Z" fill="#FFD5AE"/>
<path d="M139.64 81.9204C139.401 82.1997 139.116 82.4212 138.802 82.5722C138.488 82.7232 138.151 82.8006 137.811 82.8H136.723C136.378 82.4345 136.101 81.9918 135.908 81.4987C135.715 81.0057 135.611 80.4724 135.601 79.9312C135.591 79.39 135.675 78.852 135.85 78.3497C136.024 77.8475 136.285 77.3915 136.616 77.0091C136.679 76.9358 136.745 76.8662 136.815 76.8002H138.122C138.461 76.7951 138.796 76.8871 139.097 77.068C139.399 77.249 139.657 77.5132 139.849 77.8374C140.738 79.3694 140.466 80.9784 139.64 81.9204Z" fill="#FFE1DE"/>
<path d="M100.929 104.4L98.3999 100.8L102 103.877L100.929 104.4Z" fill="#FF905C"/>
<path d="M114 95.1712C110.735 96.7944 104.37 97.5118 103.159 97.0736C102.259 96.749 102.031 95.0057 102 93.5708C103.768 93.3632 105.523 93.0619 107.255 92.6683C111.696 91.7009 113.37 93.5383 114 95.1712Z" fill="#FFE1DE"/>
<path d="M135.455 107.388C135.845 107.815 136.282 108.202 136.759 108.544C137.037 108.744 137.338 108.915 137.657 109.055C137.748 109.096 137.836 109.131 137.928 109.165V109.736L137.968 112.8C140.302 111.764 144.986 109.2 145.193 105.235C145.467 99.9521 138.012 100.25 136.082 101.748C134.151 103.245 133.802 105.627 135.455 107.388Z" fill="#FFC3BD"/>
<path d="M138 109.2C138.069 109.263 138.135 109.316 138.204 109.369V110.246C139.609 110.819 140.4 109.61 140.4 109.61C139.594 109.669 138.787 109.532 138 109.2Z" fill="#FF905C"/>
<path d="M139.639 106.096C139.399 106.32 139.114 106.497 138.801 106.618C138.487 106.739 138.15 106.8 137.811 106.8H136.723C136.378 106.508 136.101 106.153 135.908 105.759C135.715 105.365 135.611 104.938 135.601 104.505C135.591 104.072 135.675 103.642 135.85 103.24C136.024 102.838 136.285 102.473 136.615 102.167L136.814 102H138.121C138.462 101.996 138.799 102.07 139.102 102.216C139.405 102.362 139.664 102.575 139.857 102.836C140.736 104.056 140.464 105.334 139.639 106.096Z" fill="#FFD5AE"/>
<path d="M139.639 106.096C139.399 106.32 139.114 106.497 138.801 106.618C138.487 106.739 138.15 106.8 137.811 106.8H136.723C136.378 106.508 136.101 106.153 135.908 105.759C135.715 105.365 135.611 104.938 135.601 104.505C135.591 104.072 135.675 103.642 135.85 103.24C136.024 102.838 136.285 102.473 136.615 102.167L136.814 102H138.121C138.462 101.996 138.799 102.07 139.102 102.216C139.405 102.362 139.664 102.575 139.857 102.836C140.736 104.056 140.464 105.334 139.639 106.096Z" fill="#FFE1DE"/>
<path d="M63.1545 134.4L86.3999 154.964L70.7888 171.6L46.7999 150.254L63.1545 134.4Z" fill="#F2F2F2"/>
<path d="M59.8433 135.6L85.2 158.153L68.1728 176.4L42 152.989L59.8433 135.6Z" fill="#333333"/>
<path d="M76.8 160.8C78.1255 160.8 79.2 159.725 79.2 158.4C79.2 157.075 78.1255 156 76.8 156C75.4745 156 74.4 157.075 74.4 158.4C74.4 159.725 75.4745 160.8 76.8 160.8Z" fill="white"/>
<defs>
<linearGradient id="paint0_linear" x1="94.8001" y1="81.6" x2="135.6" y2="81.6" gradientUnits="userSpaceOnUse">
<stop stop-color="#9C97FF"/>
<stop offset="1" stop-color="#625AFF"/>
</linearGradient>
<linearGradient id="paint1_linear" x1="1940" y1="863.695" x2="2000.76" y2="863.695" gradientUnits="userSpaceOnUse">
<stop stop-color="#9C97FF"/>
<stop offset="1" stop-color="#625AFF"/>
</linearGradient>
<linearGradient id="paint2_linear" x1="3541.88" y1="1525.06" x2="3757.01" y2="1525.06" gradientUnits="userSpaceOnUse">
<stop stop-color="#9C97FF"/>
<stop offset="1" stop-color="#625AFF"/>
</linearGradient>
</defs>
</svg>
