<svg width="279" height="238" viewBox="0 0 279 238" fill="none" xmlns="http://www.w3.org/2000/svg">
<path d="M16.7656 109.944C12.3571 159.406 -20.539 149.87 24.2767 206.604C69.0924 263.338 138.698 177.045 138.698 177.045C138.698 177.045 209.735 270.013 230.709 224.246C251.683 178.478 267.896 197.071 267.896 167.512C267.896 137.953 292.21 152.256 264.082 117.929C235.953 83.6028 241.198 61.1958 217.36 74.5451C193.522 87.8944 188.277 48.8 188.277 48.8C188.277 48.8 174.45 6.8453 138.695 24.009C102.939 41.1728 72.4264 19.2412 65.7517 55.4746C59.0771 91.708 21.1741 60.4814 16.7656 109.944Z" stroke="#D2C4FF" stroke-dasharray="5 5"/>
<path opacity="0.18" d="M220.128 99.2669C216.854 99.2664 213.587 99.5929 210.378 100.242C209.183 94.2813 206.653 88.6694 202.977 83.8281C199.301 78.9867 194.575 75.0419 189.154 72.2902C183.734 69.5386 177.76 68.0517 171.682 67.9416C165.605 67.8314 159.581 69.1007 154.064 71.6542C149.174 58.3179 139.197 47.4641 126.319 41.4711C113.441 35.4782 98.7118 34.8349 85.3601 39.6823C72.0084 44.5297 61.1228 54.4724 55.0889 67.3315C49.055 80.1907 48.3648 94.9174 53.1697 108.284C41.4374 108.654 30.3202 113.619 22.2153 122.11C14.1104 130.601 9.66706 141.937 9.84344 153.673C10.0198 165.41 14.8018 176.608 23.1582 184.851C31.5146 193.094 42.7759 197.723 54.514 197.74H220.128C226.611 197.767 233.036 196.513 239.033 194.051C245.03 191.589 250.482 187.966 255.076 183.392C259.67 178.817 263.315 173.38 265.802 167.393C268.29 161.406 269.57 154.987 269.57 148.503C269.57 142.02 268.29 135.601 265.802 129.614C263.315 123.627 259.67 118.19 255.076 113.615C250.482 109.04 245.03 105.418 239.033 102.956C233.036 100.493 226.611 99.2399 220.128 99.2669Z" fill="white"/>
<path d="M215.305 109.719C212.226 109.719 209.156 110.026 206.139 110.636C205.015 105.033 202.636 99.7573 199.181 95.206C195.725 90.6548 191.282 86.9464 186.186 84.3596C181.091 81.7729 175.475 80.3751 169.761 80.2716C164.048 80.168 158.385 81.3612 153.199 83.7615C148.632 71.1837 139.257 60.9349 127.134 55.2699C115.011 49.6049 101.134 48.9877 88.5564 53.5541C75.9785 58.1205 65.7298 67.4963 60.0648 79.6192C54.3998 91.742 53.7826 105.619 58.349 118.197C47.3221 118.547 36.8746 123.217 29.2583 131.198C21.642 139.18 17.4667 149.835 17.6324 160.866C17.7981 171.897 22.2915 182.421 30.1442 190.171C37.9968 197.92 48.5798 202.273 59.6122 202.293H215.305C221.4 202.319 227.44 201.141 233.079 198.827C238.718 196.512 243.844 193.107 248.163 188.806C252.482 184.505 255.91 179.394 258.248 173.765C260.587 168.136 261.791 162.101 261.791 156.006C261.791 149.911 260.587 143.876 258.248 138.247C255.91 132.618 252.482 127.507 248.163 123.206C243.844 118.905 238.718 115.5 233.079 113.185C227.44 110.871 221.4 109.693 215.305 109.719Z" fill="white"/>
<path d="M53.2233 226.953C63.6293 221.426 67.5845 208.51 62.0574 198.104C56.5303 187.698 43.6139 183.743 33.2079 189.27C22.8018 194.797 18.8467 207.713 24.3738 218.119C29.9009 228.525 42.8172 232.48 53.2233 226.953Z" fill="url(#paint0_linear)"/>
<path d="M61.5892 212.839C53.5091 217.535 45.2614 221.916 36.8462 225.981C36.5324 226.125 36.1768 226.151 35.8457 226.052C35.5147 225.954 35.2307 225.738 35.0467 225.446C31.0951 218.886 27.5005 212.119 24.2785 205.172C24.1394 204.856 24.12 204.5 24.2237 204.171C24.3275 203.841 24.5474 203.561 24.8425 203.381C32.9226 198.685 41.1703 194.304 49.5856 190.239C49.8994 190.095 50.255 190.07 50.586 190.168C50.9171 190.267 51.2011 190.482 51.385 190.774C55.3366 197.334 58.9313 204.101 62.1533 211.048C62.2923 211.364 62.3118 211.72 62.208 212.05C62.1042 212.379 61.8843 212.659 61.5892 212.839Z" fill="url(#paint1_linear)"/>
<path d="M48.7735 218.575C44.6486 220.766 40.4257 222.913 36.2246 224.967L36.156 225.004L36.1196 224.935C32.1985 218.357 28.5605 211.508 25.3057 204.575L25.2693 204.507L25.3378 204.47C29.3874 202.138 33.5323 199.845 37.6601 197.652C41.788 195.46 46.0079 193.315 50.209 191.26L50.2776 191.224L50.314 191.292C54.2351 197.871 57.8731 204.72 61.1279 211.652L61.1643 211.721L61.0958 211.757C57.0432 214.091 52.8983 216.385 48.7735 218.575Z" fill="url(#paint2_linear)"/>
<path d="M28.7096 205.579C29.8397 207.878 30.9999 210.16 32.1903 212.427C37.0609 213.27 42.0298 214.166 46.9092 215.067C48.8943 210.52 50.9315 205.903 52.963 201.394C51.7515 199.138 50.5099 196.899 49.2381 194.676C42.3157 198.159 35.4729 201.794 28.7096 205.579Z" fill="url(#paint3_linear)"/>
<path d="M28.7096 205.579C29.8397 207.878 30.9999 210.16 32.1903 212.427C37.0609 213.27 42.0298 214.166 46.9092 215.067C48.8943 210.52 50.9315 205.903 52.963 201.394C51.7515 199.138 50.5099 196.899 49.2381 194.676C42.3157 198.159 35.4729 201.794 28.7096 205.579Z" fill="url(#paint4_radial)"/>
<path d="M56.0045 207.211C53.0272 209.974 50.0666 212.733 47.1109 215.446C43.2086 216.376 39.2637 217.285 35.3087 218.204C45.6998 212.832 42.5551 206.854 52.9606 201.388C53.9976 203.318 55.0123 205.259 56.0045 207.211Z" fill="url(#paint5_linear)"/>
<path d="M32.1868 212.424C33.8002 215.497 35.4688 218.54 37.1927 221.554C41.6468 219.311 46.0684 217.006 50.4575 214.64C44.4487 213.884 38.2531 213.112 32.1868 212.424Z" fill="url(#paint6_linear)"/>
<path d="M32.1891 212.423C34.6555 214.592 37.7203 215.964 40.9808 216.358C44.2413 216.753 47.545 216.152 50.4578 214.635C52.8891 213.324 55.3104 211.994 57.7215 210.645C57.1564 209.497 56.5839 208.351 56.0037 207.21C45.7364 212.814 42.543 206.86 32.1891 212.423Z" fill="url(#paint7_linear)"/>
<path d="M43.6379 203.385C43.8764 203.838 43.9755 204.351 43.9225 204.86C43.8695 205.369 43.667 205.851 43.3403 206.245C43.0137 206.639 42.5776 206.927 42.0872 207.073C41.5969 207.22 41.0741 207.217 40.5851 207.067C40.096 206.916 39.6626 206.624 39.3395 206.227C39.0164 205.83 38.8181 205.346 38.7697 204.837C38.7213 204.328 38.8249 203.815 39.0675 203.365C39.3101 202.914 39.6808 202.546 40.1327 202.305C40.4335 202.145 40.7631 202.046 41.1024 202.013C41.4417 201.981 41.7841 202.016 42.1098 202.116C42.4356 202.217 42.7383 202.38 43.0005 202.598C43.2628 202.816 43.4794 203.083 43.6379 203.385Z" fill="url(#paint8_linear)"/>
<path d="M42.5309 205.44C42.2305 205.6 41.9014 205.699 41.5626 205.731C41.2238 205.764 40.8819 205.729 40.5566 205.629C40.2313 205.529 39.929 205.365 39.667 205.148C39.405 204.931 39.1885 204.664 39.03 204.363C38.9574 204.225 38.8972 204.08 38.8502 203.932C38.7459 204.32 38.7336 204.728 38.8143 205.122C38.895 205.517 39.0664 205.887 39.3151 206.203C39.5638 206.52 39.8828 206.774 40.2468 206.946C40.6108 207.117 41.0099 207.202 41.4123 207.192C41.8146 207.183 42.2093 207.08 42.5649 206.891C42.9205 206.703 43.2273 206.434 43.4609 206.106C43.6945 205.779 43.8485 205.401 43.9106 205.003C43.9728 204.606 43.9415 204.199 43.8191 203.815C43.7285 204.161 43.5672 204.483 43.3454 204.763C43.1237 205.043 42.8463 205.273 42.5309 205.44Z" fill="url(#paint9_linear)"/>
<path d="M210.091 118.479C218.341 118.479 225.028 111.792 225.028 103.543C225.028 95.2932 218.341 88.6057 210.091 88.6057C201.842 88.6057 195.154 95.2932 195.154 103.543C195.154 111.792 201.842 118.479 210.091 118.479Z" fill="url(#paint10_linear)"/>
<path d="M215.528 96.3472C215.483 96.3098 215.43 96.2827 215.373 96.268C215.316 96.2532 215.257 96.2511 215.199 96.2619L206.302 97.8682C206.21 97.885 206.126 97.9339 206.065 98.0063C206.005 98.0787 205.972 98.17 205.972 98.2643V105.769C205.56 105.4 205.035 105.185 204.483 105.158C203.931 105.131 203.387 105.294 202.941 105.62C202.496 105.946 202.175 106.415 202.034 106.949C201.893 107.483 201.939 108.049 202.165 108.553C202.391 109.057 202.783 109.468 203.276 109.717C203.769 109.967 204.332 110.04 204.872 109.923C205.412 109.807 205.896 109.509 206.242 109.079C206.589 108.649 206.777 108.113 206.776 107.561V101.546L214.87 100.083V104.563C214.458 104.194 213.933 103.979 213.381 103.952C212.83 103.925 212.285 104.088 211.84 104.414C211.394 104.74 211.073 105.209 210.932 105.743C210.791 106.277 210.837 106.843 211.063 107.347C211.289 107.851 211.681 108.262 212.174 108.511C212.667 108.761 213.23 108.833 213.77 108.717C214.31 108.601 214.794 108.303 215.14 107.873C215.487 107.443 215.675 106.907 215.674 106.355V96.6562C215.674 96.5972 215.661 96.5388 215.636 96.4854C215.61 96.432 215.574 96.3849 215.528 96.3472ZM204.361 109.172C204.043 109.172 203.732 109.078 203.468 108.901C203.204 108.725 202.997 108.474 202.876 108.18C202.754 107.886 202.722 107.563 202.784 107.251C202.846 106.939 202.999 106.652 203.224 106.427C203.449 106.202 203.736 106.049 204.048 105.987C204.36 105.925 204.683 105.957 204.977 106.079C205.271 106.2 205.522 106.407 205.698 106.671C205.875 106.935 205.969 107.246 205.969 107.564C205.969 107.991 205.799 108.399 205.498 108.701C205.197 109.002 204.788 109.172 204.361 109.172ZM206.774 100.731V98.5972L214.868 97.1342V99.268L206.774 100.731ZM213.26 107.966C212.942 107.966 212.631 107.872 212.367 107.695C212.103 107.519 211.896 107.268 211.775 106.974C211.653 106.68 211.621 106.357 211.683 106.045C211.745 105.733 211.898 105.446 212.123 105.221C212.348 104.996 212.635 104.843 212.947 104.781C213.259 104.719 213.582 104.751 213.876 104.873C214.17 104.994 214.421 105.201 214.597 105.465C214.774 105.729 214.868 106.04 214.868 106.358C214.868 106.785 214.698 107.193 214.397 107.495C214.095 107.796 213.687 107.966 213.26 107.966Z" fill="white"/>
<path d="M32.5561 70.6814C36.1856 70.6814 39.7335 71.7577 42.7513 73.7741C45.7692 75.7905 48.1213 78.6566 49.5102 82.0098C50.8991 85.363 51.2626 89.0528 50.5545 92.6125C49.8464 96.1722 48.0986 99.4421 45.5322 102.009C42.9658 104.575 39.6959 106.323 36.1362 107.031C32.5764 107.739 28.8867 107.375 25.5335 105.987C22.1802 104.598 19.3142 102.245 17.2978 99.2277C15.2813 96.2099 14.2051 92.6619 14.2051 89.0324C14.2051 84.1654 16.1385 79.4978 19.58 76.0563C23.0214 72.6148 27.6891 70.6814 32.5561 70.6814V70.6814Z" fill="url(#paint11_linear)"/>
<path d="M33.5043 84.7852H27.5227C27.2596 84.7852 27.0074 84.8897 26.8214 85.0757C26.6354 85.2617 26.5309 85.5139 26.5309 85.777V91.7585C26.5309 92.0216 26.6354 92.2738 26.8214 92.4599C27.0074 92.6459 27.2596 92.7503 27.5227 92.7503H33.5043C33.6345 92.7503 33.7635 92.7247 33.8838 92.6748C34.0041 92.625 34.1135 92.5519 34.2056 92.4599C34.2977 92.3678 34.3707 92.2584 34.4206 92.1381C34.4704 92.0178 34.4961 91.8888 34.4961 91.7585V85.777C34.4961 85.6467 34.4704 85.5177 34.4206 85.3974C34.3707 85.2771 34.2977 85.1677 34.2056 85.0757C34.1135 84.9836 34.0041 84.9105 33.8838 84.8607C33.7635 84.8108 33.6345 84.7852 33.5043 84.7852ZM37.4305 85.567L35.1593 87.1349V90.3997L37.4322 91.9659C37.5312 92.0358 37.6474 92.0772 37.7682 92.0859C37.8891 92.0945 38.01 92.0699 38.1179 92.0148C38.2258 91.9597 38.3166 91.8762 38.3805 91.7733C38.4443 91.6703 38.4789 91.5519 38.4804 91.4308V86.1022C38.4785 85.9813 38.4437 85.8632 38.3798 85.7606C38.3159 85.658 38.2253 85.5747 38.1176 85.5197C38.01 85.4647 37.8894 85.44 37.7688 85.4484C37.6482 85.4567 37.5321 85.4977 37.4331 85.567H37.4305Z" fill="white"/>
<path d="M269.276 176.769L256.173 172.254C255.234 171.93 254.462 171.247 254.027 170.354L253.005 168.255C252.57 167.363 251.797 166.68 250.858 166.357L242.046 163.32C241.506 163.134 240.913 163.17 240.399 163.42C239.886 163.67 239.492 164.114 239.305 164.654L235.797 174.835C235.611 175.376 235.647 175.968 235.897 176.482C236.148 176.996 236.592 177.389 237.133 177.575L265.616 187.391C266.156 187.577 266.749 187.541 267.263 187.291C267.777 187.04 268.17 186.596 268.356 186.055L270.612 179.509C270.798 178.968 270.762 178.376 270.512 177.862C270.261 177.349 269.817 176.955 269.276 176.769Z" fill="url(#paint12_linear)"/>
<path d="M264.4 186.973L238.143 177.925C237.644 177.753 237.235 177.39 237.004 176.916C236.773 176.443 236.739 175.896 236.911 175.398L238.786 169.959C238.87 169.712 239.003 169.484 239.176 169.288C239.349 169.093 239.559 168.933 239.793 168.818C240.028 168.704 240.283 168.637 240.544 168.621C240.805 168.605 241.066 168.64 241.313 168.725L267.57 177.774C268.068 177.946 268.478 178.308 268.709 178.782C268.94 179.256 268.973 179.802 268.801 180.3L266.927 185.739C266.842 185.986 266.71 186.214 266.537 186.41C266.364 186.606 266.154 186.765 265.919 186.88C265.685 186.995 265.43 187.062 265.169 187.078C264.908 187.094 264.647 187.058 264.4 186.973Z" fill="url(#paint13_linear)"/>
<path d="M267.572 177.774L264.907 176.856C265.405 177.028 265.815 177.391 266.046 177.864C266.277 178.338 266.31 178.884 266.138 179.383L264.264 184.822C264.092 185.32 263.73 185.73 263.256 185.961C262.782 186.191 262.236 186.225 261.738 186.053L264.402 186.971C264.901 187.143 265.447 187.11 265.92 186.879C266.394 186.648 266.757 186.238 266.929 185.74L268.802 180.303C268.888 180.056 268.923 179.795 268.908 179.534C268.892 179.274 268.825 179.019 268.711 178.784C268.597 178.549 268.437 178.339 268.242 178.166C268.046 177.992 267.818 177.86 267.572 177.774Z" fill="url(#paint14_linear)"/>
<path d="M260.898 205.126L231.19 194.888C230.627 194.694 230.163 194.284 229.902 193.748C229.64 193.212 229.603 192.594 229.797 192.03L236.363 172.975C236.558 172.411 236.968 171.948 237.504 171.686C238.04 171.425 238.658 171.388 239.222 171.582L268.929 181.819C269.208 181.916 269.466 182.066 269.687 182.262C269.908 182.457 270.089 182.695 270.218 182.96C270.347 183.226 270.423 183.514 270.441 183.809C270.459 184.104 270.419 184.399 270.323 184.678L263.756 203.734C263.561 204.297 263.151 204.76 262.615 205.021C262.079 205.282 261.461 205.32 260.898 205.126Z" fill="url(#paint15_linear)"/>
<path d="M214.32 6.22144H236.352C236.449 6.22144 236.542 6.26001 236.611 6.32868C236.68 6.39735 236.718 6.49049 236.718 6.5876V36.0098C236.718 36.1069 236.68 36.2001 236.611 36.2687C236.542 36.3374 236.449 36.376 236.352 36.376H214.32C214.223 36.376 214.129 36.3374 214.061 36.2687C213.992 36.2001 213.953 36.1069 213.953 36.0098V6.5876C213.953 6.49049 213.992 6.39735 214.061 6.32868C214.129 6.26001 214.223 6.22144 214.32 6.22144Z" fill="#E0E0E0"/>
<path d="M235.071 6.22144V34.365C235.071 34.4131 235.061 34.4607 235.043 34.5052C235.025 34.5496 234.998 34.59 234.964 34.624C234.93 34.658 234.889 34.6849 234.845 34.7033C234.8 34.7217 234.753 34.7312 234.705 34.7312H213.953V6.5876C213.953 6.49049 213.992 6.39735 214.061 6.32868C214.129 6.26001 214.223 6.22144 214.32 6.22144H235.071Z" fill="white"/>
<path d="M233.241 3.11133H211.209C211.111 3.11133 211.018 3.14991 210.95 3.21858C210.881 3.28725 210.842 3.38038 210.842 3.4775V32.8997C210.842 32.9968 210.881 33.0899 210.95 33.1586C211.018 33.2273 211.111 33.2659 211.209 33.2659H233.241C233.338 33.2659 233.431 33.2273 233.5 33.1586C233.568 33.0899 233.607 32.9968 233.607 32.8997V3.4775C233.607 3.38038 233.568 3.28725 233.5 3.21858C233.431 3.14991 233.338 3.11133 233.241 3.11133Z" fill="#F5F5F5"/>
<path d="M231.96 3.11133V31.2549C231.96 31.303 231.95 31.3506 231.932 31.3951C231.913 31.4395 231.886 31.4799 231.852 31.5139C231.818 31.5479 231.778 31.5748 231.734 31.5932C231.689 31.6116 231.642 31.6211 231.594 31.6211H210.842V3.4775C210.842 3.38038 210.881 3.28725 210.95 3.21858C211.018 3.14991 211.111 3.11133 211.209 3.11133H231.96Z" fill="#E6E6E6"/>
<path d="M230.495 0.366166V29.7884C230.495 29.8365 230.486 29.8841 230.467 29.9285C230.449 29.9729 230.422 30.0133 230.388 30.0473C230.354 30.0813 230.313 30.1083 230.269 30.1267C230.225 30.1451 230.177 30.1545 230.129 30.1545H208.464C207.493 30.1545 206.563 29.7693 205.876 29.0835C205.19 28.3976 204.804 27.4674 204.804 26.4971V25.5454C204.804 25.4483 204.842 25.3552 204.911 25.2865C204.98 25.2179 205.073 25.1793 205.17 25.1793H207.378C207.473 25.1762 207.563 25.1363 207.628 25.0681C207.694 25 207.731 24.9088 207.731 24.814V0.366166C207.731 0.269053 207.77 0.175917 207.838 0.107248C207.907 0.0385781 208 0 208.097 0L230.13 0C230.227 0.000226027 230.32 0.0389039 230.388 0.107549C230.457 0.176194 230.495 0.269201 230.495 0.366166Z" fill="white"/>
<path d="M216.951 10.6136H210.656C210.559 10.6136 210.466 10.575 210.397 10.5063C210.329 10.4377 210.29 10.3445 210.29 10.2474V3.95259C210.29 3.85548 210.329 3.76234 210.397 3.69367C210.466 3.625 210.559 3.58643 210.656 3.58643H216.951C217.048 3.58643 217.141 3.625 217.21 3.69367C217.279 3.76234 217.317 3.85548 217.317 3.95259V10.244C217.318 10.2924 217.309 10.3404 217.29 10.3852C217.272 10.43 217.245 10.4708 217.211 10.5051C217.177 10.5395 217.137 10.5668 217.092 10.5854C217.047 10.604 217 10.6136 216.951 10.6136Z" fill="#FAA515"/>
<path d="M227.934 10.2107H219.882C219.737 10.2107 219.597 10.1529 219.494 10.0499C219.391 9.94701 219.333 9.80741 219.333 9.66186C219.333 9.5163 219.391 9.37671 219.494 9.27378C219.597 9.17086 219.737 9.11304 219.882 9.11304H227.934C228.079 9.11304 228.219 9.17086 228.322 9.27378C228.425 9.37671 228.482 9.5163 228.482 9.66186C228.482 9.80741 228.425 9.94701 228.322 10.0499C228.219 10.1529 228.079 10.2107 227.934 10.2107Z" fill="#2B597F"/>
<path d="M223.176 15.188H215.051C214.906 15.188 214.766 15.1302 214.663 15.0272C214.56 14.9243 214.502 14.7847 214.502 14.6392C214.502 14.4936 214.56 14.354 214.663 14.2511C214.766 14.1481 214.906 14.0903 215.051 14.0903H223.176C223.322 14.0903 223.461 14.1481 223.564 14.2511C223.667 14.354 223.725 14.4936 223.725 14.6392C223.725 14.7847 223.667 14.9243 223.564 15.0272C223.461 15.1302 223.322 15.188 223.176 15.188Z" fill="#2B597F"/>
<path d="M227.934 7.64843H219.882C219.737 7.64843 219.597 7.59061 219.494 7.48768C219.391 7.38476 219.333 7.24516 219.333 7.0996C219.333 6.95405 219.391 6.81445 219.494 6.71153C219.597 6.6086 219.737 6.55078 219.882 6.55078H227.934C228.079 6.55078 228.219 6.6086 228.322 6.71153C228.425 6.81445 228.482 6.95405 228.482 7.0996C228.482 7.24516 228.425 7.38476 228.322 7.48768C228.219 7.59061 228.079 7.64843 227.934 7.64843Z" fill="#2B597F"/>
<path d="M227.934 5.08715H219.882C219.737 5.08715 219.597 5.02933 219.494 4.9264C219.391 4.82348 219.333 4.68388 219.333 4.53833C219.333 4.39277 219.391 4.25317 219.494 4.15025C219.597 4.04733 219.737 3.9895 219.882 3.9895H227.934C228.079 3.9895 228.219 4.04733 228.322 4.15025C228.425 4.25317 228.482 4.39277 228.482 4.53833C228.482 4.68388 228.425 4.82348 228.322 4.9264C228.219 5.02933 228.079 5.08715 227.934 5.08715Z" fill="#2B597F"/>
<path d="M227.934 21.7029H210.294C210.148 21.7029 210.008 21.645 209.905 21.5421C209.803 21.4392 209.745 21.2996 209.745 21.1541C209.745 21.0085 209.803 20.8689 209.905 20.766C210.008 20.663 210.148 20.6052 210.294 20.6052H227.934C228.079 20.6052 228.219 20.663 228.322 20.766C228.425 20.8689 228.482 21.0085 228.482 21.1541C228.482 21.2996 228.425 21.4392 228.322 21.5421C228.219 21.645 228.079 21.7029 227.934 21.7029H227.934Z" fill="#2B597F"/>
<path d="M227.934 18.4089H218.345C218.199 18.4089 218.06 18.3511 217.957 18.2482C217.854 18.1453 217.796 18.0057 217.796 17.8601C217.796 17.7145 217.854 17.5749 217.957 17.472C218.06 17.3691 218.199 17.3113 218.345 17.3113H227.934C228.079 17.3113 228.219 17.3691 228.322 17.472C228.425 17.5749 228.482 17.7145 228.482 17.8601C228.482 18.0057 228.425 18.1453 228.322 18.2482C228.219 18.3511 228.079 18.4089 227.934 18.4089Z" fill="#2B597F"/>
<path d="M215.783 18.4089H210.257C210.111 18.4089 209.972 18.3511 209.869 18.2482C209.766 18.1453 209.708 18.0057 209.708 17.8601C209.708 17.7145 209.766 17.5749 209.869 17.472C209.972 17.3691 210.111 17.3113 210.257 17.3113H215.783C215.929 17.3113 216.068 17.3691 216.171 17.472C216.274 17.5749 216.332 17.7145 216.332 17.8601C216.332 18.0057 216.274 18.1453 216.171 18.2482C216.068 18.3511 215.929 18.4089 215.783 18.4089Z" fill="#2B597F"/>
<path d="M226.893 30.1571H208.464C207.493 30.1571 206.562 29.7715 205.876 29.0852C205.189 28.3988 204.804 27.4679 204.804 26.4972V25.5464C204.804 25.4492 204.842 25.3561 204.911 25.2874C204.98 25.2187 205.073 25.1802 205.17 25.1802H222.904C223.001 25.1802 223.094 25.2187 223.163 25.2874C223.231 25.3561 223.27 25.4492 223.27 25.5464V26.4989C223.27 27.463 223.651 28.3879 224.329 29.0729C225.008 29.7579 225.929 30.1475 226.893 30.1571Z" fill="#2B597F"/>
<path d="M114.922 61.2924C128.593 61.2924 139.675 50.4014 139.675 36.9666C139.675 23.5319 128.593 12.6409 114.922 12.6409C101.252 12.6409 90.1696 23.5319 90.1696 36.9666C90.1696 50.4014 101.252 61.2924 114.922 61.2924Z" fill="#D2F0FF"/>
<path d="M138.176 43.9545C138.219 43.818 138.261 43.6805 138.305 43.5431L125.423 30.6616L124.74 29.9523H123.673L116.612 22.8918L99.6166 25.8732V47.163L113.329 60.875C113.855 60.9091 114.386 60.9279 114.921 60.9279C118.535 60.9314 122.104 60.1309 125.37 58.5843C128.635 57.0378 131.516 54.784 133.803 51.9863C135.753 49.6077 137.236 46.8828 138.176 43.9545Z" fill="#73C8F0"/>
<path d="M116.61 50.1438L99.6132 47.1615V25.8726L116.61 22.8904V50.1438Z" fill="#1E73BE"/>
<path d="M108.078 40.4245C107.001 40.3824 105.982 39.9238 105.237 39.1454C104.491 38.367 104.077 37.3295 104.082 36.2518C104.086 35.174 104.509 34.14 105.261 33.3679C106.013 32.5958 107.035 32.1458 108.113 32.1128C109.19 32.1509 110.21 32.6104 110.953 33.3925C111.695 34.1746 112.101 35.2168 112.083 36.2951C112.099 37.3738 111.687 38.4148 110.935 39.1892C110.184 39.9635 109.156 40.4079 108.078 40.4245ZM105.7 36.2686C105.762 36.7275 105.955 37.1587 106.256 37.5107C106.557 37.8627 106.952 38.1207 107.396 38.2538C107.839 38.3869 108.312 38.3895 108.757 38.2613C109.202 38.133 109.6 37.8794 109.905 37.5307C110.209 37.182 110.407 36.753 110.475 36.2949C110.542 35.8368 110.476 35.369 110.284 34.9474C110.093 34.5258 109.784 34.1682 109.395 33.9174C109.006 33.6666 108.553 33.5332 108.09 33.5331C107.751 33.5495 107.419 33.6341 107.114 33.7818C106.808 33.9295 106.536 34.1372 106.313 34.3926C106.09 34.648 105.92 34.9458 105.815 35.2681C105.71 35.5905 105.67 35.9308 105.7 36.2686Z" fill="white"/>
<path d="M124.742 29.9507H117.452V37.7452L124.742 31.6228V29.9507Z" fill="#1E73BE"/>
<path d="M117.452 38.708V43.0832H124.742V32.5847L117.452 38.708Z" fill="#1E73BE"/>
<path d="M95.563 177.568C94.9665 177.568 94.3758 177.45 93.8247 177.222C93.2736 176.993 92.7729 176.659 92.3513 176.237C91.9297 175.814 91.5953 175.313 91.3674 174.762C91.1395 174.211 91.0225 173.62 91.0231 173.024V120.417H119.581L127.494 126.624H159.424V135.704C136.673 155.318 121.937 177.568 95.563 177.568Z" fill="url(#paint16_linear)"/>
<path d="M110.981 135.705L100.608 173.974C100.328 175.004 99.7163 175.914 98.8679 176.563C98.0195 177.212 96.9811 177.564 95.9131 177.564H131.568L142.322 154.208L142.91 135.705H110.981Z" fill="#D8F5EA"/>
<path d="M141.756 135.704L130.413 177.563H158.623C159.691 177.563 160.73 177.212 161.578 176.563C162.426 175.914 163.038 175.004 163.318 173.973L173.688 135.704H141.756Z" fill="#B8E4E8"/>
<path d="M170.854 111.735L167.085 114.663C166.413 110.388 164.154 106.523 160.758 103.841C157.361 101.158 153.078 99.8557 148.764 100.193C144.449 100.53 140.42 102.482 137.482 105.66C134.544 108.837 132.912 113.006 132.913 117.334H137.778C137.781 114.341 138.872 111.452 140.848 109.204C142.824 106.957 145.55 105.505 148.518 105.119C151.486 104.734 154.492 105.441 156.977 107.108C159.462 108.776 161.255 111.291 162.023 114.183L158.871 111.735L155.888 115.576L164.862 122.547L173.837 115.576L170.854 111.735Z" fill="#77CA95"/>
<g filter="url(#filter0_d)">
<path d="M182.351 160.302H128.579V167.131H182.351V160.302Z" fill="url(#paint17_linear)"/>
</g>
<path d="M178.937 167.984C181.294 167.984 183.205 166.074 183.205 163.717C183.205 161.36 181.294 159.449 178.937 159.449C176.58 159.449 174.67 161.36 174.67 163.717C174.67 166.074 176.58 167.984 178.937 167.984Z" fill="url(#paint18_linear)"/>
<defs>
<filter id="filter0_d" x="122.579" y="157.302" width="65.7727" height="18.8283" filterUnits="userSpaceOnUse" color-interpolation-filters="sRGB">
<feFlood flood-opacity="0" result="BackgroundImageFix"/>
<feColorMatrix in="SourceAlpha" type="matrix" values="0 0 0 0 0 0 0 0 0 0 0 0 0 0 0 0 0 0 127 0" result="hardAlpha"/>
<feOffset dy="3"/>
<feGaussianBlur stdDeviation="3"/>
<feColorMatrix type="matrix" values="0 0 0 0 0 0 0 0 0 0 0 0 0 0 0 0 0 0 0.071 0"/>
<feBlend mode="normal" in2="BackgroundImageFix" result="effect1_dropShadow"/>
<feBlend mode="normal" in="SourceGraphic" in2="effect1_dropShadow" result="shape"/>
</filter>
<linearGradient id="paint0_linear" x1="36.961" y1="228.537" x2="49.4701" y2="187.686" gradientUnits="userSpaceOnUse">
<stop stop-color="#FFE34D"/>
<stop offset="1" stop-color="#FFB526"/>
</linearGradient>
<linearGradient id="paint1_linear" x1="29.6764" y1="252.309" x2="38.8995" y2="175.857" gradientUnits="userSpaceOnUse">
<stop stop-color="#FFCB00"/>
<stop offset="0.214" stop-color="#FFDA49"/>
<stop offset="0.425" stop-color="#FFE78A"/>
<stop offset="0.616" stop-color="#FFF1BC"/>
<stop offset="0.781" stop-color="#FFF9E1"/>
<stop offset="0.914" stop-color="#FFFDF7"/>
<stop offset="1" stop-color="white"/>
</linearGradient>
<linearGradient id="paint2_linear" x1="32.254" y1="243.875" x2="37.8914" y2="189.938" gradientUnits="userSpaceOnUse">
<stop stop-color="#FFCB00"/>
<stop offset="0.041" stop-color="#FFD224"/>
<stop offset="0.099" stop-color="#FFDC51"/>
<stop offset="0.164" stop-color="#FFE47B"/>
<stop offset="0.233" stop-color="#FFEB9F"/>
<stop offset="0.307" stop-color="#FFF1BD"/>
<stop offset="0.388" stop-color="#FFF6D5"/>
<stop offset="0.48" stop-color="#FFFAE8"/>
<stop offset="0.587" stop-color="#FFFDF5"/>
<stop offset="0.724" stop-color="#FFFFFD"/>
<stop offset="1" stop-color="white"/>
</linearGradient>
<linearGradient id="paint3_linear" x1="28.7689" y1="242.941" x2="28.4663" y2="182.132" gradientUnits="userSpaceOnUse">
<stop stop-color="#FFCB00"/>
<stop offset="0.344" stop-color="#FFDF62"/>
<stop offset="0.665" stop-color="#FFF0B6"/>
<stop offset="0.891" stop-color="#FFFBEB"/>
<stop offset="1" stop-color="white"/>
</linearGradient>
<radialGradient id="paint4_radial" cx="0" cy="0" r="1" gradientUnits="userSpaceOnUse" gradientTransform="translate(14.3448 218.738) rotate(-27.9747) scale(14.8665 14.88)">
<stop stop-color="#FFCB00" stop-opacity="0.4"/>
<stop offset="0.064" stop-color="#FFD326" stop-opacity="0.376"/>
<stop offset="0.161" stop-color="#FFDD58" stop-opacity="0.337"/>
<stop offset="0.262" stop-color="#FFE685" stop-opacity="0.294"/>
<stop offset="0.366" stop-color="#FFEEAA" stop-opacity="0.255"/>
<stop offset="0.474" stop-color="#FFF4C9" stop-opacity="0.212"/>
<stop offset="0.587" stop-color="#FFF9E1" stop-opacity="0.165"/>
<stop offset="0.706" stop-color="#FFFCF2" stop-opacity="0.118"/>
<stop offset="0.837" stop-color="#FFFEFC" stop-opacity="0.067"/>
<stop offset="1" stop-color="white" stop-opacity="0"/>
</radialGradient>
<linearGradient id="paint5_linear" x1="63.1807" y1="218.07" x2="41.1196" y2="189.424" gradientUnits="userSpaceOnUse">
<stop stop-color="#FF8C00"/>
<stop offset="0.359" stop-color="#FFB830"/>
<stop offset="0.789" stop-color="#FFE764"/>
<stop offset="1" stop-color="#FFFA78"/>
</linearGradient>
<linearGradient id="paint6_linear" x1="38.502" y1="222.743" x2="37.6458" y2="198.39" gradientUnits="userSpaceOnUse">
<stop stop-color="#FFCB00"/>
<stop offset="0.295" stop-color="#FFD54D"/>
<stop offset="0.638" stop-color="#FFE0A0"/>
<stop offset="0.882" stop-color="#FFE7D5"/>
<stop offset="1" stop-color="#FFEAE9"/>
</linearGradient>
<linearGradient id="paint7_linear" x1="37.425" y1="236.094" x2="26.2065" y2="198.489" gradientUnits="userSpaceOnUse">
<stop stop-color="#FFCB00"/>
<stop offset="0.295" stop-color="#FFD54D"/>
<stop offset="0.638" stop-color="#FFE0A0"/>
<stop offset="0.882" stop-color="#FFE7D5"/>
<stop offset="1" stop-color="#FFEAE9"/>
</linearGradient>
<linearGradient id="paint8_linear" x1="38.4155" y1="214.141" x2="42.3191" y2="201.443" gradientUnits="userSpaceOnUse">
<stop stop-color="#FFCB00"/>
<stop offset="0.041" stop-color="#FFD224"/>
<stop offset="0.099" stop-color="#FFDC51"/>
<stop offset="0.164" stop-color="#FFE47B"/>
<stop offset="0.233" stop-color="#FFEB9F"/>
<stop offset="0.307" stop-color="#FFF1BD"/>
<stop offset="0.388" stop-color="#FFF6D5"/>
<stop offset="0.48" stop-color="#FFFAE8"/>
<stop offset="0.587" stop-color="#FFFDF5"/>
<stop offset="0.724" stop-color="#FFFFFD"/>
<stop offset="1" stop-color="white"/>
</linearGradient>
<linearGradient id="paint9_linear" x1="39.3426" y1="211.173" x2="40.9416" y2="199.389" gradientUnits="userSpaceOnUse">
<stop stop-color="#FFCB00"/>
<stop offset="0.041" stop-color="#FFD224"/>
<stop offset="0.099" stop-color="#FFDC51"/>
<stop offset="0.164" stop-color="#FFE47B"/>
<stop offset="0.233" stop-color="#FFEB9F"/>
<stop offset="0.307" stop-color="#FFF1BD"/>
<stop offset="0.388" stop-color="#FFF6D5"/>
<stop offset="0.48" stop-color="#FFFAE8"/>
<stop offset="0.587" stop-color="#FFFDF5"/>
<stop offset="0.724" stop-color="#FFFFFD"/>
<stop offset="1" stop-color="white"/>
</linearGradient>
<linearGradient id="paint10_linear" x1="210.091" y1="88.6057" x2="210.091" y2="118.479" gradientUnits="userSpaceOnUse">
<stop stop-color="#C1FFE2"/>
<stop offset="1" stop-color="#27D583"/>
</linearGradient>
<linearGradient id="paint11_linear" x1="32.5561" y1="70.6814" x2="32.5561" y2="107.383" gradientUnits="userSpaceOnUse">
<stop stop-color="#FFD6E9"/>
<stop offset="0.0001" stop-color="#F3AFCE"/>
<stop offset="0.0002" stop-color="#EEA0C4"/>
<stop offset="1" stop-color="#E37DAC"/>
</linearGradient>
<linearGradient id="paint12_linear" x1="237.648" y1="169.779" x2="269.622" y2="180.797" gradientUnits="userSpaceOnUse">
<stop stop-color="#FEB137"/>
<stop offset="1" stop-color="#FD6930"/>
</linearGradient>
<linearGradient id="paint13_linear" x1="244.662" y1="175.025" x2="261.531" y2="180.838" gradientUnits="userSpaceOnUse">
<stop stop-color="#F2FBFF"/>
<stop offset="0.593" stop-color="#FAF7F7"/>
<stop offset="1" stop-color="#F3EAE6"/>
</linearGradient>
<linearGradient id="paint14_linear" x1="262.982" y1="181.337" x2="266.78" y2="182.646" gradientUnits="userSpaceOnUse">
<stop stop-color="#F3EAE6"/>
<stop offset="1" stop-color="#CDBFBA"/>
</linearGradient>
<linearGradient id="paint15_linear" x1="233.182" y1="182.538" x2="266.53" y2="194.03" gradientUnits="userSpaceOnUse">
<stop stop-color="#FFF9DF"/>
<stop offset="0.0001" stop-color="#FFCB00"/>
<stop offset="1" stop-color="#FEB137"/>
</linearGradient>
<linearGradient id="paint16_linear" x1="125.223" y1="120.417" x2="125.223" y2="177.568" gradientUnits="userSpaceOnUse">
<stop stop-color="#DAF6EB"/>
<stop offset="0.423" stop-color="#C3ECE4"/>
<stop offset="1" stop-color="#A4DFDA"/>
</linearGradient>
<linearGradient id="paint17_linear" x1="177.942" y1="160.302" x2="176.843" y2="173.316" gradientUnits="userSpaceOnUse">
<stop stop-color="#DAF6EB"/>
<stop offset="0.423" stop-color="#C3ECE4"/>
<stop offset="1" stop-color="#A4DFDA"/>
</linearGradient>
<linearGradient id="paint18_linear" x1="178.937" y1="159.449" x2="178.937" y2="167.984" gradientUnits="userSpaceOnUse">
<stop stop-color="#FEB137"/>
<stop offset="1" stop-color="#FFEFB3"/>
</linearGradient>
</defs>
</svg>
